# xmcd CD database file
#
# Track frame offsets:
#	150
#	21498
#	39911
#	59463
#	76452
#	96375
#	121130
#	160195
#	184191
#	207536
#	233751
#	249788
#	267634
#	284892
#	295315
#	312262
#
# Disc length: 4571 seconds
#
# Revision: 0
# Processed by: cddbd v1.5.2PL0 Copyright (c) Steve Scherf et al.
# Submitted via: CDex 1.70beta2
#
DISCID=f011d910
DTITLE=Terry Blaine with Mark Shane - With Thee I Swing
DYEAR=2004
DGENRE=Jazz
TTITLE0=I've Got A Feeling I'm Falling
TTITLE1=What A Little Moonlight Can Do
TTITLE2=I'm Glad There Is You
TTITLE3=Harlem On My Mind
TTITLE4=I Got Rhythm
TTITLE5=Why Don't You Do Right
TTITLE6=It's A Wonderful World
TTITLE7=I Don't Know If I'm Comin' Or Goin'
TTITLE8=Jeepers Creepers
TTITLE9=Dream - Dream A Little Dream Of Me
TTITLE10=Getting Some Fun Out Of Life
TTITLE11=Carolina Shout
TTITLE12=They Say That Falling In Love Is Wonderful
TTITLE13=With Thee I Swing
TTITLE14=Oh Daddy
TTITLE15=Mama Don't Allow
EXTD=YEAR: 2004
EXTT0=
EXTT1=
EXTT2=
EXTT3=
EXTT4=
EXTT5=
EXTT6=
EXTT7=
EXTT8=
EXTT9=
EXTT10=
EXTT11=
EXTT12=
EXTT13=
EXTT14=
EXTT15=
PLAYORDER=
